<svg width="106" height="27" viewBox="0 0 106 27" fill="none" xmlns="http://www.w3.org/2000/svg">
<path d="M16.598 25.3447V20.4487H6.466V1.13673H0.754V25.3447H16.598ZM18.7902 13.2407C18.7902 20.9247 24.2302 26.1947 32.1862 26.1947C40.1082 26.1947 45.5822 20.9247 45.5822 13.2407C45.5822 5.59073 40.1082 0.286725 32.1862 0.286725C24.2302 0.286725 18.7902 5.59073 18.7902 13.2407ZM24.5022 13.2407C24.5022 8.51473 27.6642 5.18272 32.1862 5.18272C36.7082 5.18272 39.8702 8.51473 39.8702 13.2407C39.8702 17.9667 36.7082 21.2987 32.1862 21.2987C27.6642 21.2647 24.5022 17.9667 24.5022 13.2407ZM69.511 15.3487C69.307 18.7147 66.213 21.2987 62.371 21.2987C57.815 21.2987 54.551 17.8987 54.551 13.2407C54.551 8.54873 57.747 5.18272 62.201 5.18272C65.057 5.18272 67.641 6.81473 68.423 9.05873L73.659 7.90273C72.469 3.44872 67.777 0.286725 62.235 0.286725C54.449 0.286725 48.839 5.72673 48.839 13.2407C48.839 20.7547 54.449 26.1947 62.235 26.1947C70.395 26.1947 75.801 20.0747 75.019 11.6087H62.031V15.3487H69.511ZM78.3566 13.2407C78.3566 20.9247 83.7966 26.1947 91.7526 26.1947C99.6746 26.1947 105.149 20.9247 105.149 13.2407C105.149 5.59073 99.6746 0.286725 91.7526 0.286725C83.7966 0.286725 78.3566 5.59073 78.3566 13.2407ZM84.0686 13.2407C84.0686 8.51473 87.2306 5.18272 91.7526 5.18272C96.2746 5.18272 99.4366 8.51473 99.4366 13.2407C99.4366 17.9667 96.2746 21.2987 91.7526 21.2987C87.2306 21.2647 84.0686 17.9667 84.0686 13.2407Z" fill="white"/>
</svg>
